<svg id="Capa_1" enable-background="new 0 0 512 512" height="512" viewBox="0 0 512 512" width="512" xmlns="http://www.w3.org/2000/svg"><g><g><path d="m136 76h-60v426h300v-66z" fill="#fff"/><path d="m356 10h-220v426h300v-346z" fill="#cef"/><path d="m436 90h-80v-80" fill="#9df"/></g><g><g fill="#80aaff"><path d="m196 116h20v20c0 5.522 4.477 10 10 10s10-4.478 10-10v-20h20c5.523 0 10-4.478 10-10s-4.477-10-10-10h-20v-20c0-5.522-4.477-10-10-10s-10 4.478-10 10v20h-20c-5.523 0-10 4.478-10 10s4.477 10 10 10z"/><path d="m196 206h180c5.523 0 10-4.478 10-10s-4.477-10-10-10h-180c-5.523 0-10 4.478-10 10s4.477 10 10 10z"/><path d="m196 266h180c5.523 0 10-4.478 10-10s-4.477-10-10-10h-180c-5.523 0-10 4.478-10 10s4.477 10 10 10z"/><path d="m196 326h180c5.523 0 10-4.478 10-10s-4.477-10-10-10h-180c-5.523 0-10 4.478-10 10s4.477 10 10 10z"/><path d="m196 386h180c5.523 0 10-4.478 10-10s-4.477-10-10-10h-180c-5.523 0-10 4.478-10 10s4.477 10 10 10z"/><path d="m376 512c5.523 0 10-4.478 10-10v-56h50c5.523 0 10-4.478 10-10v-346c0-2.567-1.011-5.151-2.929-7.071l-80-80c-1.767-1.77-4.355-2.929-7.071-2.929h-220c-5.523 0-10 4.478-10 10v56h-50c-5.523 0-10 4.478-10 10v426c0 5.522 4.477 10 10 10zm-10-477.858 45.858 45.858h-45.858zm-220-14.142h200v70c0 5.522 4.477 10 10 10h70v326h-280zm-60 66h40v350c0 5.522 4.477 10 10 10h230v46h-280z"/></g></g></g></svg>