<?xml version="1.0" encoding="iso-8859-1"?>
<!-- Generator: Adobe Illustrator 19.0.0, SVG Export Plug-In . SVG Version: 6.00 Build 0)  -->
<svg version="1.1" id="Capa_1" xmlns="http://www.w3.org/2000/svg" xmlns:xlink="http://www.w3.org/1999/xlink" x="0px" y="0px"
	 viewBox="0 0 512 512" style="enable-background:new 0 0 512 512;" xml:space="preserve">
<g>
	<g>
		<g>
			<path d="M159.5,300h-119c-22.056,0-40,17.944-40,40c0,11.046,8.954,20,20,20s20-8.954,20-20h40v152c0,11.046,8.954,20,20,20
				s20-8.954,20-20V340h39c0,11.046,8.954,20,20,20s20-8.954,20-20C199.5,317.944,181.556,300,159.5,300z"/>
			<path d="M431.5,0h-272c-44.112,0-80,35.888-80,80v28c0,11.046,8.954,20,20,20s20-8.954,20-20V80c0-22.056,17.944-40,40-40h272
				c22.056,0,40,17.944,40,40v28c0,11.046,8.954,20,20,20c11.046,0,20-8.954,20-20V80C511.5,35.888,475.612,0,431.5,0z"/>
			<path d="M295.5,80c-11.046,0-20,8.954-20,20v391c0,11.046,8.954,20,20,20c11.046,0,20-8.954,20-20V100
				C315.5,88.954,306.546,80,295.5,80z"/>
		</g>
	</g>
</g>
<g>
</g>
<g>
</g>
<g>
</g>
<g>
</g>
<g>
</g>
<g>
</g>
<g>
</g>
<g>
</g>
<g>
</g>
<g>
</g>
<g>
</g>
<g>
</g>
<g>
</g>
<g>
</g>
<g>
</g>
</svg>
