<svg id="_x33_0" enable-background="new 0 0 64 64" height="512" viewBox="0 0 64 64" width="512" xmlns="http://www.w3.org/2000/svg"><g><g><path d="m23 43c0-5.514-4.486-10-10-10s-10 4.486-10 10v12.825h.135c.945-1.323 2.401-2.267 4.121-2.482l.704-.088c1.229-.154 2.238-1.047 2.538-2.249l.068-.27h.037c-1.517-.569-2.603-2.02-2.603-3.736v-2.558c0-.861.551-1.625 1.368-1.897 1.073-.358 2.049-.961 2.849-1.761l.783-.784.783.783c.8.8 1.776 1.403 2.849 1.761.817.272 1.368 1.037 1.368 1.898v2.558c0 1.716-1.085 3.167-2.603 3.735h.036l.068.271c.3 1.202 1.309 2.096 2.538 2.249l.704.088c1.72.215 3.176 1.158 4.121 2.482h.149z" fill="#f0bc5e"/></g><g><g><path d="m11 21h-6v-8h6z" fill="#f0bc5e"/></g></g><g><path d="m13 14h12v8h-12z" fill="#f0bc5e"/></g><g><path d="m25 45.161h14v9.839h-14z" fill="#f0bc5e"/></g><g><g><path d="m45 25h-6v-8h6z" fill="#f0bc5e"/></g></g><g><path d="m47 18h12v8h-12z" fill="#f0bc5e"/></g><g><path d="m5 5h2v2h-2z"/><path d="m9 5h2v2h-2z"/><path d="m13 13h12v2h-12z"/><path d="m13 17h12v2h-12z"/><path d="m5 23h2v2h-2z"/><path d="m9 23h2v2h-2z"/><path d="m13 21h12v2h-12z"/><path d="m13 5h2v2h-2z"/><path d="m61 5h-24c-1.103 0-2 .897-2 2v10h-6v-14c0-1.103-.897-2-2-2h-24c-1.103 0-2 .897-2 2v24c0 1.103.897 2 2 2h24c1.103 0 2-.897 2-2v-8h6v12c0 1.103.897 2 2 2h14v14.101c-1.956.399-3.5 1.943-3.899 3.899h-4.101v-14c0-1.103-.897-2-2-2h-22.026c.76.569 1.435 1.242 2.006 2h20.02v4h-18.202c.132.646.202 1.315.202 2h18v13c0 2.757-2.243 5-5 5h-11v-1.703c0-3.523-2.636-6.509-6.131-6.946l-.705-.088c-.648-.081-1.199-.487-1.502-1.046 1.4-.888 2.338-2.441 2.338-4.217v-2.559c0-1.293-.824-2.437-2.051-2.846h-.001c-.921-.307-1.771-.832-2.458-1.519l-.49-.49v-2.586h-2v2.586l-.49.49c-.687.687-1.536 1.212-2.459 1.519-1.227.41-2.051 1.553-2.051 2.846v2.559c0 1.776.938 3.329 2.338 4.216-.303.56-.855.965-1.503 1.046l-.703.088c-3.496.438-6.132 3.423-6.132 6.947v3.703h21 3 11c3.859 0 7-3.14 7-7v-3h4.101c.465 2.279 2.484 4 4.899 4 2.757 0 5-2.243 5-5 0-2.414-1.721-4.434-4-4.899v-14.101h8c1.103 0 2-.897 2-2v-24c0-1.103-.897-2-2-2zm-34-2v6h-24v-6zm-24 24v-16h24l.001 16zm6 17.441c0-.431.275-.813.685-.949 1.215-.405 2.335-1.098 3.239-2.002l.076-.076.076.076c.905.906 2.025 1.598 3.24 2.002.41.137.684.518.684.949v2.559c0 1.654-1.346 3-3 3h-2c-1.654 0-3-1.346-3-3zm3 7.559h2c.265 0 .52-.038.774-.078.352.772.942 1.405 1.67 1.822l-1.254 2.256h-4.38l-1.254-2.257c.728-.416 1.318-1.05 1.67-1.821.254.04.509.078.774.078zm2.078 6-1.078 1.941-1.078-1.941zm-11.078 1.297c0-2.517 1.883-4.649 4.381-4.961l.203-.025 3.716 6.689h-8.3zm19 1.703h-7.3l3.717-6.69.204.026c2.496.311 4.379 2.444 4.379 4.961v1.703zm33-9c0 1.654-1.346 3-3 3s-3-1.346-3-3 1.346-3 3-3 3 1.346 3 3zm6-45v6h-24v-6zm-24 24v-16h24l.001 16z"/><path d="m39 9h2v2h-2z"/><path d="m43 9h2v2h-2z"/><path d="m47 17h12v2h-12z"/><path d="m47 21h12v2h-12z"/><path d="m39 27h2v2h-2z"/><path d="m43 27h2v2h-2z"/><path d="m47 25h12v2h-12z"/><path d="m47 9h2v2h-2z"/><path d="m25 45h4v2h-4z"/><path d="m31 45h8v2h-8z"/><path d="m25 49h14v2h-14z"/><path d="m25 53h6v2h-6z"/><path d="m33 53h6v2h-6z"/><path d="m27 57h2v2h-2z"/><path d="m31 57h2v2h-2z"/></g></g></svg>