<svg id="Layer_3" enable-background="new 0 0 64 64" height="512" viewBox="0 0 64 64" width="512" xmlns="http://www.w3.org/2000/svg"><g><path d="m1 6h62v14h-62z" fill="#c1c8d1"/><g fill="#ebf7fe"><path d="m40 20v-6c0-2.209 1.791-4 4-4 2.209 0 4 1.791 4 4v6z"/><path d="m28 20v-6c0-2.209 1.791-4 4-4 2.209 0 4 1.791 4 4v6z"/><path d="m16 20v-6c0-2.209 1.791-4 4-4 2.209 0 4 1.791 4 4v6z"/><path d="m4 20v-6c0-2.209 1.791-4 4-4 2.209 0 4 1.791 4 4v6z"/></g><path d="m1 20h62v4h-62z" fill="#4472b0"/><path d="m54 56-22 6-22-6v-32l22-6.528 22 6.528z" fill="#666e77"/><path d="m54 56v-6l-22 6-22-6v6l22.022 6z" fill="#f7d881"/><path d="m48 51.636v-13.272l-10-2.728v18.728z" fill="#f2c351"/><path d="m10 35 22-6 22 6v-4l-22-6-22 6z" fill="#f2c351"/><path d="m1 2h62v4h-62z" fill="#4472b0"/><path d="m52 20v-6c0-2.209 1.791-4 4-4 2.209 0 4 1.791 4 4v6z" fill="#ebf7fe"/><g><path d="m1 1h62v2h-62z"/><path d="m1 5h62v2h-62z"/><path d="m61 14c0-2.757-2.243-5-5-5s-5 2.243-5 5v5h-2v-5c0-2.757-2.243-5-5-5s-5 2.243-5 5v4.506l-2-.593v-3.913c0-2.757-2.243-5-5-5s-5 2.243-5 5v3.913l-2 .593v-4.506c0-2.757-2.243-5-5-5s-5 2.243-5 5v5h-2v-5c0-2.757-2.243-5-5-5s-5 2.243-5 5v5h-2v2h15.596l-6.74 2h-8.856v2h8v30h-8v2h8.866l21.871 5.965c.086.023.174.035.263.035s.177-.012.263-.035l21.871-5.965h8.866v-2h-8v-30h8v-2h-8.856l-6.74-2h15.596v-2h-2zm-8 0c0-1.654 1.346-3 3-3s3 1.346 3 3v5h-6zm-9-3c1.654 0 3 1.346 3 3v5h-6v-5c0-1.654 1.346-3 3-3zm-15 3c0-1.654 1.346-3 3-3s3 1.346 3 3v3.32l-2.716-.806c-.186-.056-.383-.056-.568 0l-2.716.806zm-18 17.764 20.004-5.456.001 1.927-20.005 5.456zm0 4 20.006-5.456.012 24.388-20.018-5.46zm8 17.727v3.927l-4-1.091v-3.927zm2 .545 4 1.091v3.927l-4-1.091zm6 1.637 4.02 1.096.002 3.927-4.022-1.096zm6.02 1.085 3.98-1.085v3.927l-3.978 1.085zm13.98-5.885-8 2.182v-16.11l8 2.182zm-8 4.254 4-1.091v3.927l-4 1.091zm6-1.636 4-1.091v3.927l-4 1.091zm4-3.164v-11.963c0-.451-.302-.846-.737-.965l-10-2.728c-.297-.08-.621-.019-.87.17-.247.19-.393.484-.393.795v17.964l-3.981 1.086-.012-24.374 19.993 5.452v13.472zm4-16.636-19.995-5.453-.001-1.927 19.996 5.453zm-36-19.691c0-1.654 1.346-3 3-3s3 1.346 3 3v5h-6zm-12 0c0-1.654 1.346-3 3-3s3 1.346 3 3v5h-6zm26.001 4.812.003 5.424-20.004 5.455v-4.944zm-20.001 32.497 2 .545v3.927l-2-.545zm40 4.473v-3.927l2-.545v3.927zm2-26.091-19.997-5.454-.003-5.425 20 5.935z"/></g></g></svg>