<svg id="Layer_1" enable-background="new 0 0 512 512" height="512" viewBox="0 0 512 512" width="512" xmlns="http://www.w3.org/2000/svg"><g><g><path d="m475.17 320.87c-4.05-1.126-6.414-5.328-5.277-9.378 1.137-4.049 5.338-6.414 9.378-5.277 4.05 1.136 6.413 5.338 5.277 9.388-.944 3.359-3.999 5.551-7.328 5.551-.68 0-1.37-.091-2.05-.284zm8.728-39.61c-4.191-.395-7.267-4.1-6.87-8.291.395-4.181 4.11-7.256 8.291-6.86 4.181.395 7.267 4.1 6.87 8.291-.376 3.938-3.694 6.891-7.571 6.891-.242-.001-.476-.011-.72-.031zm-6.657-47.486c-.356-4.191 2.76-7.865 6.951-8.22 4.191-.345 7.865 2.771 8.221 6.951.345 4.192-2.771 7.876-6.962 8.221-.213.02-.426.031-.639.031-3.918 0-7.247-3.004-7.571-6.983zm-6.719-38.595c-1.096-4.059 1.309-8.241 5.369-9.327 4.059-1.086 8.241 1.319 9.326 5.379 1.096 4.059-1.319 8.231-5.379 9.327-.659.173-1.319.254-1.979.254-3.359-.001-6.434-2.233-7.337-5.633z" fill="#e8f3ff"/><g><g><g><g><path d="m259.793 168.828c0-20.426 16.559-36.984 36.984-36.984 19.256 0 35.068 14.717 36.817 33.516h-8.225c25.017 0 45.298 20.281 45.298 45.298v83.073c0 25.017-20.281 45.298-45.298 45.298h8.225c-1.749 18.799-17.561 33.516-36.817 33.516-20.426 0-36.984-16.559-36.984-36.984z" fill="#ffdbd3"/><path d="m325.37 165.36h8.224c-1.749-18.799-17.561-33.516-36.817-33.516-7.497 0-14.472 2.23-20.299 6.064 9.14 6.014 15.453 15.972 16.522 27.452h-8.224c25.017 0 45.298 20.281 45.298 45.298v83.073c0 25.017-20.281 45.298-45.298 45.298h8.224c-1.068 11.481-7.382 21.439-16.522 27.452 5.827 3.833 12.803 6.064 20.299 6.064 19.256 0 35.068-14.717 36.817-33.516h-8.224c25.017 0 45.298-20.281 45.298-45.298v-83.073c0-25.018-20.281-45.298-45.298-45.298z" fill="#ffd1c7"/><path d="m259.819 335.561c0 20.426-16.559 36.984-36.984 36.984-19.256 0-35.068-14.717-36.817-33.516h8.225c-25.017 0-45.298-20.281-45.298-45.298v-83.073c0-25.017 20.281-45.298 45.298-45.298h-8.225c1.749-18.799 17.561-33.516 36.817-33.516 20.426 0 36.984 16.559 36.984 36.984z" fill="#ffdbd3"/><path d="m222.834 131.843c-7.496 0-14.47 2.231-20.295 6.064 10.051 6.611 16.685 17.991 16.685 30.921v166.733c0 12.929-6.635 24.309-16.685 30.921 5.826 3.833 12.8 6.064 20.295 6.064 20.426 0 36.985-16.558 36.985-36.984v-166.734c0-20.426-16.559-36.985-36.985-36.985z" fill="#ffd1c7"/></g><g fill="#ffbcad"><g><path d="m291.874 339.376c-4.204 0-7.612-3.408-7.612-7.611 0-24.293 19.764-44.057 44.057-44.057 4.204 0 7.611 3.408 7.611 7.612s-3.407 7.611-7.611 7.611c-15.899 0-28.835 12.935-28.835 28.834.002 4.203-3.406 7.611-7.61 7.611z"/><path d="m227.737 339.376c-4.204 0-7.611-3.408-7.611-7.611 0-15.899-12.936-28.834-28.834-28.834-4.204 0-7.611-3.408-7.611-7.611s3.407-7.612 7.611-7.612c24.293 0 44.057 19.764 44.057 44.057 0 4.203-3.407 7.611-7.612 7.611z"/></g><g><path d="m191.291 221.843c-4.204 0-7.611-3.408-7.611-7.611 0-4.204 3.407-7.611 7.611-7.611 15.899 0 28.834-12.935 28.834-28.834 0-4.204 3.407-7.611 7.611-7.611s7.611 3.408 7.611 7.611c.002 24.292-19.762 44.056-44.056 44.056z"/><path d="m328.32 221.843c-24.293 0-44.057-19.764-44.057-44.057 0-4.204 3.407-7.611 7.612-7.611s7.611 3.408 7.611 7.611c0 15.899 12.936 28.834 28.835 28.834 4.204 0 7.611 3.408 7.611 7.611 0 4.204-3.408 7.612-7.612 7.612z"/></g><path d="m227.737 276.361c-1.947 0-3.896-.743-5.383-2.229-12.096-12.096-12.096-31.779 0-43.875 2.973-2.972 7.792-2.972 10.765 0 2.972 2.972 2.972 7.792 0 10.764-6.162 6.161-6.162 16.186 0 22.347 2.972 2.972 2.972 7.792 0 10.764-1.486 1.486-3.434 2.229-5.382 2.229z"/><path d="m291.585 276.361c-1.947 0-3.896-.743-5.383-2.229-2.972-2.972-2.972-7.792 0-10.764 6.162-6.161 6.162-16.186 0-22.347-2.972-2.972-2.972-7.792 0-10.764 2.973-2.972 7.792-2.972 10.765 0 12.096 12.096 12.096 31.779 0 43.875-1.486 1.486-3.435 2.229-5.382 2.229z"/></g></g></g><g fill="#e8f3ff"><path d="m255.158 478.641c-.051-4.202 3.308-7.652 7.509-7.713 4.212-.051 7.663 3.319 7.714 7.52.051 4.201-3.308 7.652-7.51 7.703-.041 0-.07 0-.101 0-4.162 0-7.562-3.339-7.612-7.51zm-34.07 4.323c-4.151-.69-6.951-4.617-6.252-8.758.691-4.151 4.618-6.952 8.758-6.252 4.152.69 6.943 4.618 6.252 8.759-.618 3.724-3.846 6.363-7.5 6.363-.415 0-.832-.04-1.258-.112zm74.542-7.104c-.812-4.13 1.888-8.119 6.018-8.921 4.121-.812 8.119 1.888 8.921 6.008.802 4.13-1.887 8.129-6.018 8.931-.488.091-.974.142-1.462.142-3.572.001-6.758-2.526-7.459-6.16zm-115.086-3.521c-3.957-1.431-5.997-5.795-4.567-9.753 1.431-3.948 5.795-5.998 9.743-4.567 3.957 1.431 5.998 5.795 4.567 9.753-1.117 3.095-4.04 5.023-7.155 5.023-.862 0-1.735-.152-2.588-.456zm154.393-6.475c-1.533-3.907.395-8.333 4.313-9.865 3.907-1.532 8.321.396 9.864 4.303 1.532 3.917-.396 8.332-4.313 9.875-.914.355-1.847.528-2.771.528-3.045 0-5.917-1.837-7.093-4.841z"/><path d="m40.209 331.699c-1.431-3.958.618-8.322 4.577-9.743 3.958-1.431 8.322.619 9.742 4.577 1.421 3.958-.629 8.322-4.577 9.742-.852.305-1.725.457-2.578.457-3.125 0-6.048-1.928-7.164-5.033zm-10.605-40.544c-.69-4.151 2.111-8.078 6.252-8.768 4.151-.69 8.068 2.111 8.768 6.251.69 4.151-2.111 8.068-6.252 8.769-.426.071-.852.102-1.269.102-3.653-.001-6.87-2.64-7.499-6.354zm4.323-34.069c-4.211-.051-7.571-3.501-7.52-7.703.051-4.202 3.492-7.571 7.693-7.52 4.212.041 7.571 3.491 7.53 7.693-.051 4.181-3.45 7.53-7.611 7.53-.031 0-.062 0-.092 0zm2.709-40.473c-4.12-.792-6.83-4.78-6.039-8.911.802-4.13 4.791-6.83 8.911-6.038 4.131.791 6.831 4.78 6.049 8.91-.711 3.644-3.897 6.181-7.469 6.181-.477 0-.964-.051-1.452-.142zm9.885-39.336c-3.918-1.522-5.866-5.937-4.344-9.854 1.522-3.917 5.927-5.866 9.854-4.343 3.918 1.522 5.856 5.927 4.344 9.854-1.177 3.014-4.05 4.861-7.104 4.861-.913-.001-1.847-.173-2.75-.518z"/><path d="m336.783 47.435c-3.938-1.482-5.917-5.876-4.424-9.803 1.482-3.938 5.876-5.917 9.803-4.435 3.939 1.492 5.917 5.886 4.435 9.814-1.157 3.045-4.049 4.922-7.124 4.922-.893-.001-1.807-.163-2.69-.498zm-163.332-4.608c-1.482-3.927.507-8.322 4.445-9.803v.01c3.928-1.482 8.322.507 9.804 4.445 1.471 3.938-.518 8.322-4.456 9.804-.883.325-1.786.487-2.669.487-3.085 0-5.977-1.888-7.124-4.943zm125.6-5.856c-4.141-.761-6.881-4.719-6.13-8.86.751-4.13 4.72-6.871 8.859-6.119 4.131.751 6.871 4.709 6.12 8.849-.67 3.674-3.877 6.252-7.48 6.252-.457 0-.913-.04-1.369-.122zm-86.884-6.231c-.751-4.141 2-8.089 6.14-8.839 4.141-.741 8.099 2.009 8.839 6.15.741 4.131-2.009 8.089-6.14 8.83-.457.091-.913.122-1.36.122-3.611-.001-6.818-2.579-7.479-6.263zm47.862 2.7c-4.201-.01-7.602-3.42-7.602-7.621 0-4.202 3.41-7.611 7.622-7.602 4.201 0 7.601 3.41 7.601 7.622 0 4.201-3.409 7.601-7.611 7.601z"/></g><g><path d="m375.204 402.745c0-32.651 26.864-59.027 59.695-58.232 30.515.739 55.532 25.337 56.756 55.836.64 15.952-5.146 30.541-14.972 41.414-3.478 3.849-5.348 8.874-5.173 14.062 0 13.79-11.179 24.968-24.968 24.968h-26.178c-13.79 0-24.968-11.179-24.968-24.968.115-5.069-1.57-10.108-5.01-13.883-9.428-10.346-15.182-24.096-15.182-39.197z" fill="#ffd54d"/><path d="m491.655 400.349c-1.224-30.499-26.241-55.097-56.756-55.836-7.678-.186-15.029 1.114-21.787 3.633 21.399 8 36.988 28.287 37.948 52.203.64 15.952-5.146 30.541-14.972 41.414-3.478 3.849-5.348 8.874-5.173 14.062 0 11.283-7.484 20.818-17.76 23.911 2.282.687 4.702 1.057 7.208 1.057h26.178c13.79 0 24.968-11.179 24.968-24.968-.175-5.188 1.695-10.214 5.173-14.062 9.826-10.873 15.613-25.462 14.973-41.414z" fill="#ffc919"/><path d="m422.63 504.388h21.647c6.516 0 11.797-5.282 11.797-11.797 0-6.516-5.282-11.797-11.797-11.797h-21.647c-6.516 0-11.797 5.282-11.797 11.797-.001 6.516 5.281 11.797 11.797 11.797z" fill="#7776d0"/><path d="m441.064 480.222v-52.165h10.293c4.204 0 7.611-3.408 7.611-7.612s-3.407-7.611-7.611-7.611h-35.81c-4.204 0-7.611 3.408-7.611 7.611s3.407 7.612 7.611 7.612h10.293v52.165z" fill="#fff"/></g><path d="m404.422 21.359-15.362-6.095-14.465 14.718 6.278 15.337c-2.453 4.535-4.293 9.324-5.52 14.246l-15.38 6.694.182 20.717 16.306 6.89c1.359 4.311 3.185 8.513 5.478 12.527l-6.525 16.719 14.722 14.58 16.566-6.775c4.029 2.247 8.24 4.023 12.552 5.329l7.084 16.274 20.638-.097 6.459-15.528c4.887-1.298 9.632-3.21 14.116-5.734l15.362 6.094 14.465-14.718-6.279-15.337c2.453-4.535 4.293-9.324 5.52-14.246l15.381-6.693-.182-20.717-16.306-6.89c-1.359-4.311-3.185-8.513-5.478-12.527l6.525-16.719-14.722-14.58-16.566 6.776c-4.029-2.247-8.24-4.023-12.552-5.329l-7.083-16.275-20.638.097-6.459 15.528c-4.888 1.299-9.633 3.21-14.117 5.734zm50.936 33.764c11.126 11.019 11.284 28.967.353 40.089s-28.811 11.207-39.937.188c-11.126-11.018-11.284-28.967-.353-40.089s28.811-11.206 39.937-.188z" fill="#7776d0"/><g><g><g><ellipse cx="84.098" cy="427.769" fill="#a6f5cf" rx="62.108" ry="62.208"/><g><path d="m84.098 489.977c-17.26 0-32.87-7.056-44.126-18.44 4.466-13.348 14.794-24.003 27.926-28.889-5.332-4.752-8.573-11.808-8.15-19.611.663-12.245 10.577-22.261 22.797-23.019 14.172-.88 25.941 10.373 25.941 24.378 0 7.261-3.166 13.778-8.187 18.252 12.927 4.81 23.137 15.209 27.712 28.264.133.379.034.808-.252 1.09-11.219 11.111-26.638 17.975-43.661 17.975z" fill="#fff"/></g><path d="m84.098 497.588c-38.443 0-69.72-31.321-69.72-69.819s31.277-69.819 69.72-69.819 69.719 31.321 69.719 69.819-31.276 69.819-69.719 69.819zm0-124.415c-30.05 0-54.497 24.492-54.497 54.596s24.447 54.596 54.497 54.596c30.049 0 54.496-24.492 54.496-54.596s-24.447-54.596-54.496-54.596z" fill="#41ba9c"/></g></g><g fill="#41ba9c"><path d="m84.098 343.538c-4.204 0-7.611 3.408-7.611 7.612v14.412c0 4.204 3.407 7.612 7.611 7.612s7.611-3.408 7.611-7.612v-14.412c.001-4.204-3.407-7.612-7.611-7.612z"/><path d="m84.098 482.365c-4.204 0-7.611 3.408-7.611 7.612v14.412c0 4.204 3.407 7.612 7.611 7.612s7.611-3.408 7.611-7.612v-14.412c.001-4.204-3.407-7.612-7.611-7.612z"/><path d="m21.985 420.158h-14.374c-4.204 0-7.611 3.408-7.611 7.611s3.407 7.612 7.611 7.612h14.374c4.204 0 7.611-3.408 7.611-7.612s-3.407-7.611-7.611-7.611z"/><path d="m161.727 420.158h-15.517c-4.204 0-7.611 3.408-7.611 7.611s3.407 7.612 7.611 7.612h15.517c4.204 0 7.611-3.408 7.611-7.612s-3.406-7.611-7.611-7.611z"/></g></g><g><g><g><g><path d="m106.32 78.82h49.354v50.402h-49.354z" fill="#ffd54d"/><path d="m7.611 48.904h49.354v80.318h-49.354z" fill="#d4d9ff"/><path d="m56.966 0h49.354v129.222h-49.354z" fill="#ff8ccc"/></g></g></g></g></g></g><path d="m496.62 92.954 15.38-6.693-.182-20.717-16.306-6.89c-1.359-4.311-3.185-8.513-5.478-12.527l6.525-16.719-14.722-14.58-16.566 6.776c-4.029-2.247-8.24-4.023-12.552-5.329l-7.083-16.275-20.638.097-2.582 6.208c27.177 11.793 46.186 38.867 46.186 70.38 0 31.009-18.406 57.72-44.888 69.803l2.625 6.032 20.638-.097 6.459-15.528c4.887-1.298 9.632-3.21 14.116-5.733l15.362 6.094 14.465-14.718-6.279-15.337c2.453-4.536 4.292-9.324 5.52-14.247z" fill="#6967bf"/></g></svg>