<svg id="Layer_1_1_" enable-background="new 0 0 64 64" height="512" viewBox="0 0 64 64" width="512" xmlns="http://www.w3.org/2000/svg"><path d="m39 19h-14v-17h8l6 6z" fill="#50b6cf"/><path d="m16 19h-14v-17h8l6 6z" fill="#50b6cf"/><path d="m10 2v6h6z" fill="#3cadc9"/><path d="m62 19h-14v-17h8l6 6z" fill="#50b6cf"/><path d="m33 2v6h6z" fill="#3cadc9"/><path d="m56 2v6h6z" fill="#3cadc9"/><path d="m24 30h16v8h-16z" fill="#f5a947"/><path d="m24 42h16v8h-16z" fill="#f5a947"/><path d="m24 54h16v8h-16z" fill="#f5a947"/><path d="m39 11.34021c-2.69702 2.8858-7.87817 5.1712-14 5.58759v2.0722h14z" fill="#3cadc9"/><path d="m62 11.34021c-2.69702 2.8858-7.87817 5.1712-14 5.58759v2.0722h14z" fill="#3cadc9"/><path d="m40 32c-3.08231 2.26048-9.00363 4.05066-16 4.37682v1.62318h16z" fill="#f09d3a"/><path d="m40 44c-3.08231 2.26048-9.00363 4.05066-16 4.37682v1.62318h16z" fill="#f09d3a"/><path d="m40 56c-3.08231 2.26048-9.00363 4.05066-16 4.37682v1.62318h16z" fill="#f09d3a"/><path d="m16 11.34021c-2.69702 2.8858-7.87817 5.1712-14 5.58759v2.0722h14z" fill="#3cadc9"/><g fill="#223b5a"><path d="m56 25h-48v-6h2v4h44v-4h2z"/><path d="m31 19h2v5h-2z"/><path d="m31 24h2v6h-2z"/><path d="m49 47h-7v-2h7c2.75684 0 5-2.24316 5-5s-2.24316-5-5-5h-9v-2h9c3.85986 0 7 3.14014 7 7s-3.14014 7-7 7z"/><path d="m44.29297 49.70703-3.70703-3.70703 3.70703-3.70703 1.41406 1.41406-2.29297 2.29297 2.29297 2.29297z"/><path d="m22 59h-7c-3.85986 0-7-3.14014-7-7s3.14014-7 7-7h9v2h-9c-2.75684 0-5 2.24316-5 5s2.24316 5 5 5h7z"/><path d="m19.70703 61.70703-1.41406-1.41406 2.29297-2.29297-2.29297-2.29297 1.41406-1.41406 3.70703 3.70703z"/></g></svg>