<svg height="478pt" viewBox="-59 0 478 478" width="478pt" xmlns="http://www.w3.org/2000/svg"><path d="m100 84h250c.007812-22.09375-17.90625-40.007812-40-40h-100v26h-60v-26h-100c-22.09375-.007812-40.007812 17.90625-40 40v344c-.007812 22.09375 17.90625 40.007812 40 40h10v-344c-.007812-22.09375 17.90625-40.007812 40-40zm0 0" fill="#d4e1f4"/><g fill="#0635c9"><path d="m310 34h-90v-24c-.015625-5.515625-4.484375-9.984375-10-10h-60c-5.515625.015625-9.984375 4.484375-10 10v24h-90c-27.609375.011719-49.9882812 22.390625-50 50v344c.0117188 27.609375 22.390625 49.988281 50 50h260c27.609375-.011719 49.988281-22.390625 50-50v-344c-.011719-27.609375-22.390625-49.988281-50-50zm-150-14h40v40h-40zm180 408c-.046875 16.546875-13.453125 29.953125-30 30h-260c-16.546875-.046875-29.953125-13.453125-30-30v-344c.046875-16.546875 13.453125-29.953125 30-30h90v16c.015625 5.515625 4.484375 9.984375 10 10h60c5.515625-.015625 9.984375-4.484375 10-10v-16h90c16.546875.046875 29.953125 13.453125 30 30zm0 0"/><path d="m288.199219 404h-216.398438c-5.523437 0-10 4.476562-10 10s4.476563 10 10 10h216.5c5.523438-.027344 9.976563-4.527344 9.949219-10.050781-.027344-5.523438-4.527344-9.976563-10.050781-9.949219zm0 0"/><path d="m121.800781 380h116.5c5.523438 0 10-4.476562 10-10s-4.476562-10-10-10h-116.5c-5.523437 0-10 4.476562-10 10s4.476563 10 10 10zm0 0"/></g><path d="m180 221.300781c28.527344.027344 51.671875-23.074219 51.699219-51.601562.027343-28.523438-23.074219-51.671875-51.597657-51.699219-28.527343-.027344-51.675781 23.074219-51.703124 51.601562-.007813 28.515626 23.082031 51.652344 51.601562 51.699219zm0-83.300781c12.808594-.019531 24.371094 7.683594 29.28125 19.515625s2.207031 25.457031-6.851562 34.515625c-9.058594 9.058594-22.683594 11.761719-34.515626 6.851562-11.832031-4.914062-19.535156-16.472656-19.515624-29.28125 0-17.453124 14.148437-31.601562 31.601562-31.601562zm0 0" fill="#1ae5be"/><path d="m180 240.398438c-21.148438-.132813-41.441406 8.351562-56.199219 23.5-15 15.300781-23.199219 36.101562-23.199219 58.703124.015626 5.515626 4.480469 9.984376 10 10h138.796876c5.519531-.015624 9.984374-4.484374 10-10 0-22.601562-8.199219-43.402343-23.199219-58.703124-14.757813-15.148438-35.050781-23.632813-56.199219-23.5zm-58.699219 72.203124c1.710938-13.078124 7.605469-25.25 16.800781-34.703124 11.066407-11.195313 26.15625-17.5 41.898438-17.5s30.832031 6.304687 41.898438 17.5c9.175781 9.46875 15.066406 21.632812 16.800781 34.703124zm0 0" fill="#1ae5be"/></svg>