<svg id="Capa_1" enable-background="new 0 0 512 512" height="512" viewBox="0 0 512 512" width="512" xmlns="http://www.w3.org/2000/svg"><g><path d="m114.569 434.093v77.907h306.263c8.532 0 15.449-6.917 15.449-15.449v-62.458z" fill="#596c76"/><path d="m440.688 512h-326.119v-77.907h341.567v62.458c.001 8.532-6.916 15.449-15.448 15.449z" fill="#fe646f"/><path d="m413.618 482.13h-277.424v-70.573h285.665v62.331c0 4.552-3.69 8.242-8.241 8.242z" fill="#c4e2ff"/><path d="m152.677 448.644h288.007c8.534 0 15.453-6.918 15.453-15.453v-417.738c0-8.535-6.919-15.453-15.453-15.453h-326.115v475.952h38.107v-27.308z" fill="#7a8c98"/><path d="m432.161 434.093v62.458c0 8.532-6.917 15.449-15.449 15.449h23.976c8.532 0 15.449-6.917 15.449-15.449v-62.458z" fill="#fd4755"/><g><path d="m440.684 0h-23.976c8.534 0 15.453 6.919 15.453 15.453v417.738c0 8.534-6.918 15.453-15.453 15.453h23.976c8.534 0 15.453-6.919 15.453-15.453v-417.738c0-8.534-6.919-15.453-15.453-15.453z" fill="#7a8c98"/></g><g><path d="m440.684 0h-23.976c8.534 0 15.453 6.919 15.453 15.453v417.738c0 8.534-6.918 15.453-15.453 15.453h23.976c8.534 0 15.453-6.919 15.453-15.453v-417.738c0-8.534-6.919-15.453-15.453-15.453z" fill="#fd8087"/></g><path d="m436.282 433.191v-417.738c0-8.534-6.919-15.453-15.453-15.453h-306.26v475.952h38.107v-27.309h268.152c8.535.001 15.454-6.918 15.454-15.452z" fill="#fe99a0"/><path d="m94.817 0c-21.513 0-38.954 17.44-38.954 38.953v14.419 436.999h96.813c0-7.869 0-468.805 0-475.953v-14.418z" fill="#fd4755"/><path d="m152.677 512h-72.177c-13.606 0-24.636-11.03-24.636-24.636v-13.054c0-13.606 11.03-24.636 24.636-24.636h72.177z" fill="#596c76"/><path d="m187.008 399.746v-349.818c0-7.806 6.328-14.134 14.134-14.134h206.529c7.806 0 14.134 6.328 14.134 14.134v349.819c0 7.806-6.328 14.134-14.134 14.134h-206.529c-7.806-.001-14.134-6.329-14.134-14.135z" fill="#fd8087"/><g><path d="m407.671 421.607h-206.529c-12.053 0-21.86-9.807-21.86-21.86v-349.819c0-12.054 9.807-21.86 21.86-21.86h206.529c12.053 0 21.86 9.807 21.86 21.86v349.818c0 12.054-9.807 21.861-21.86 21.861zm-206.529-378.087c-3.533 0-6.407 2.874-6.407 6.408v349.818c0 3.533 2.874 6.408 6.407 6.408h206.529c3.533 0 6.407-2.875 6.407-6.408v-349.818c0-3.533-2.874-6.408-6.407-6.408z" fill="#fece85"/></g></g></svg>