<svg id="Capa_1" enable-background="new 0 0 512.06 512.06" height="512" viewBox="0 0 512.06 512.06" width="512" xmlns="http://www.w3.org/2000/svg"><g><path d="m256.03 0-256.03 256.03 256.03 256.03 256.03-256.03zm-213.6 256.03 213.6-213.6 213.6 213.6-213.6 213.6z" fill="#ffaf10"/><path d="m512.06 256.03-256.03 256.03v-42.43l213.6-213.6-213.6-213.6v-42.43z" fill="#f77e01"/><path d="m89.99 89.99h332.08v332.08h-332.08z" fill="#fff0ee"/><path d="m256.03 89.99h166.04v332.08h-166.04z" fill="#e5cfcc"/><path d="m74.99 74.99v362.08h362.08v-362.08zm332.08 332.08h-302.08v-302.08h302.08z" fill="#ffda2d"/><path d="m437.07 74.99v362.08h-181.04v-30h151.04v-302.08h-151.04v-30z" fill="#fdb504"/><path d="m353.26 256.03-28.48 28.48v40.27h-40.27l-28.48 28.48-28.48-28.48h-40.27v-40.27l-28.48-28.48 28.48-28.48v-40.27h40.27l28.48-28.48 28.48 28.48h40.27v40.27z" fill="#ffda2d"/><path d="m353.26 256.03-28.48 28.48v40.27h-40.27l-28.48 28.48v-194.46l28.48 28.48h40.27v40.27z" fill="#fdb504"/><path d="m339.78 221.34v-49.06h-49.06l-34.69-34.69-34.69 34.69h-49.06v49.06l-34.69 34.69 34.69 34.69v49.06h49.06l34.69 34.69 34.69-34.69h49.06v-49.06l34.69-34.69zm-30 56.95v31.49h-31.49l-22.26 22.26-22.26-22.26h-31.49v-31.49l-22.26-22.26 22.26-22.26v-31.49h31.49l22.26-22.26 22.26 22.26h31.49v31.49l22.26 22.26z" fill="#ffaf10"/><path d="m374.47 256.03-34.69 34.69v49.06h-49.06l-34.69 34.69v-42.43l22.26-22.26h31.49v-31.49l22.26-22.26-22.26-22.26v-31.49h-31.49l-22.26-22.26v-42.43l34.69 34.69h49.06v49.06z" fill="#f77e01"/><path d="m240.89 241.03h30.28v30h-30.28z" fill="#97523e"/><path d="m256.03 241.03h15.14v30h-15.14z" fill="#7c3d30"/><path d="m23.552 23.693h30.282v30h-30.282z" fill="#97523e"/><path d="m458.226 458.367h30.282v30h-30.282z" fill="#7c3d30"/><path d="m458.226 23.693h30.282v30h-30.282z" fill="#7c3d30"/><path d="m23.552 458.367h30.282v30h-30.282z" fill="#97523e"/></g></svg>