<?xml version="1.0" encoding="iso-8859-1"?>
<!-- Generator: Adobe Illustrator 19.0.0, SVG Export Plug-In . SVG Version: 6.00 Build 0)  -->
<svg version="1.1" id="Capa_1" xmlns="http://www.w3.org/2000/svg" xmlns:xlink="http://www.w3.org/1999/xlink" x="0px" y="0px"
	 viewBox="0 0 512 512" style="enable-background:new 0 0 512 512;" xml:space="preserve">
<g>
	<g>
		<path d="M437.02,74.98C388.667,26.629,324.38,0,256,0S123.333,26.629,74.98,74.98C26.629,123.332,0,187.62,0,256
			s26.629,132.668,74.98,181.02C123.333,485.371,187.62,512,256,512s132.667-26.629,181.02-74.98
			C485.371,388.668,512,324.38,512,256S485.371,123.332,437.02,74.98z M256,497C123.112,497,15,388.888,15,256S123.112,15,256,15
			s241,108.112,241,241S388.888,497,256,497z"/>
	</g>
</g>
<g>
	<g>
		<path d="M415.806,96.194C373.12,53.508,316.367,30,256,30S138.88,53.508,96.194,96.194C53.508,138.88,30,195.634,30,256
			c0,28.04,5.087,55.428,15.121,81.402c1.492,3.863,5.833,5.789,9.699,4.294c3.864-1.492,5.786-5.835,4.293-9.698
			c-8.468-21.923-13.148-44.932-13.969-68.498h79.165c0.716,48.513,8.371,94.793,21.655,134.065
			c-10.163,4.852-20.039,10.393-29.569,16.61c-17.814-15.708-33.118-34.528-45.003-55.943c-2.01-3.622-6.576-4.929-10.197-2.918
			c-3.622,2.01-4.928,6.575-2.918,10.197c13.633,24.563,31.461,45.943,52.299,63.449c0.251,0.244,0.519,0.462,0.797,0.665
			c21.585,17.965,46.363,31.789,73.035,40.713c0.587,0.286,1.209,0.484,1.844,0.608C208.464,478.166,231.96,482,256,482
			c60.367,0,117.12-23.508,159.806-66.194C458.492,373.12,482,316.366,482,256C482,195.634,458.492,138.88,415.806,96.194z
			 M168.37,64.077c-6.379,11.007-12.142,23.144-17.247,36.2c-7.671-3.718-15.162-7.862-22.451-12.412
			C140.931,78.559,154.231,70.558,168.37,64.077z M45.148,248.5c2.103-59.879,29.271-113.484,71.317-150.629
			c9.509,6.198,19.361,11.724,29.499,16.564c-13.284,39.272-20.938,85.552-21.655,134.065H45.148z M128.613,424.17
			c7.308-4.563,14.819-8.719,22.51-12.447c5.101,13.048,10.861,25.178,17.235,36.179C154.288,441.47,140.955,433.513,128.613,424.17
			z M248.5,466.865c-19.34-0.688-38.241-4.028-56.254-9.748c-10.587-14.396-19.807-31.812-27.457-51.491
			c26.456-10.837,54.719-16.864,83.711-17.751V466.865z M248.5,372.869c-30.749,0.886-60.731,7.215-88.812,18.637
			c-12.479-37.386-19.679-81.555-20.38-128.006H248.5V372.869z M248.5,248.5H139.308c0.701-46.451,7.901-90.62,20.38-128.006
			c28.081,11.422,58.063,17.751,88.812,18.637V248.5z M248.5,124.126c-28.993-0.887-57.255-6.914-83.711-17.751
			c7.657-19.698,16.887-37.127,27.486-51.531c17.84-5.664,36.699-9.01,56.225-9.696V124.126z M466.852,248.5h-79.161
			c-0.716-48.513-8.371-94.793-21.655-134.065c10.138-4.84,19.99-10.366,29.499-16.564
			C437.581,135.016,464.749,188.621,466.852,248.5z M383.328,87.865c-7.289,4.55-14.78,8.693-22.451,12.412
			c-5.105-13.056-10.868-25.193-17.247-36.199C357.768,70.559,371.069,78.559,383.328,87.865z M263.501,45.148
			c19.525,0.685,38.384,4.031,56.224,9.696c10.599,14.404,19.829,31.833,27.487,51.531c-26.456,10.837-54.718,16.864-83.711,17.751
			V45.148z M263.5,139.131c30.749-0.886,60.731-7.215,88.812-18.637c12.48,37.386,19.68,81.555,20.38,128.006H263.5V139.131z
			 M263.5,263.5h109.192c-0.701,46.451-7.901,90.62-20.38,128.006c-28.081-11.422-58.063-17.751-88.812-18.637V263.5z
			 M263.5,466.852v-78.978c28.993,0.887,57.255,6.914,83.711,17.751c-7.657,19.698-16.887,37.127-27.486,51.531
			C301.885,462.82,283.026,466.166,263.5,466.852z M343.63,447.923c6.379-11.007,12.142-23.144,17.247-36.2
			c7.671,3.718,15.162,7.862,22.451,12.412C371.069,433.441,357.769,441.442,343.63,447.923z M395.535,414.129
			c-9.509-6.198-19.361-11.724-29.499-16.564c13.284-39.272,20.938-85.552,21.655-134.065h79.161
			C464.749,323.379,437.581,376.984,395.535,414.129z"/>
	</g>
</g>
<g>
</g>
<g>
</g>
<g>
</g>
<g>
</g>
<g>
</g>
<g>
</g>
<g>
</g>
<g>
</g>
<g>
</g>
<g>
</g>
<g>
</g>
<g>
</g>
<g>
</g>
<g>
</g>
<g>
</g>
</svg>
