<svg id="Capa_1" enable-background="new 0 0 512 512" height="512" viewBox="0 0 512 512" width="512" xmlns="http://www.w3.org/2000/svg" xmlns:xlink="http://www.w3.org/1999/xlink"><linearGradient id="SVGID_1_" gradientUnits="userSpaceOnUse" x1="256" x2="256" y1="512" y2="0"><stop offset="0" stop-color="#5558ff"/><stop offset="1" stop-color="#00c0ff"/></linearGradient><g><g><g><path d="m166.003 60c0-33.084-26.916-60-60-60s-60 26.916-60 60 26.916 60 60 60 60-26.916 60-60zm-60 30c-16.542 0-30-13.458-30-30s13.458-30 30-30 30 13.458 30 30-13.458 30-30 30zm300 272h-45v-45c0-8.284-6.716-15-15-15s-15 6.716-15 15v60c0 8.284 6.716 15 15 15h60c8.284 0 15-6.716 15-15s-6.715-15-15-15zm-300-242c-44.312 0-79.095 38.402-74.618 82.601l29.693 295.896c.77 7.667 7.221 13.503 14.925 13.503h60c7.704 0 14.155-5.836 14.925-13.502l29.693-295.896c4.486-44.266-30.373-82.602-74.618-82.602zm44.77 79.593c-1.62 16.145-26.63 265.37-28.34 282.407h-32.859l-28.34-282.407c-2.692-26.518 18.149-49.593 44.769-49.593 26.594 0 47.466 23.039 44.77 49.593zm195.23 42.407c-74.439 0-135 60.561-135 135s60.561 135 135 135 135-60.561 135-135-60.56-135-135-135zm0 240c-57.897 0-105-47.103-105-105s47.103-105 105-105 105 47.103 105 105-47.102 105-105 105z" fill="url(#SVGID_1_)"/></g></g></g></svg>