<svg id="Capa_1" enable-background="new 0 0 512 512" height="512" viewBox="0 0 512 512" width="512" xmlns="http://www.w3.org/2000/svg"><g><g><path d="m512 129.107h-58.502l15.221-30.024h43.281z" fill="#fabe2c"/></g><g><path d="m453.498 162.825h58.502v30.025h-58.502z" fill="#fabe2c"/></g><g><path d="m453.498 226.439h58.502v30.025h-58.502z" fill="#fabe2c"/></g><g><path d="m453.498 290.053h58.502v30.025h-58.502z" fill="#fabe2c"/></g><g><path d="m453.498 353.668h58.502v30.025h-58.502z" fill="#fabe2c"/></g><g><path d="m453.498 417.282h58.502v30.025h-58.502z" fill="#fabe2c"/></g><path d="m512 511.935h-43.281l-15.221-30.024h58.502z" fill="#fabe2c"/><path d="m129.278 99.081v325.629c0 31.524-25.505 57.106-57.029 57.201l.09 30.025h396.382v-412.855z" fill="#fd7c90"/><path d="m121.188 156.331v235.319c0 22.781-21.888 41.268-48.94 41.337l.077 21.698 293.595-.742c0-25.735 20.828-46.616 46.563-46.681v-204.25c-25.781 0-46.681-20.9-46.681-46.681z" fill="#935ed0"/><g><path d="m372.059 469.884h-242.781v-30.025h214.354c5.861-27.121 27.265-48.526 54.387-54.387v-160.813c-27.122-5.861-48.526-27.266-54.387-54.387h-214.354v-30.025h242.782v15.012c0 22.592 18.38 40.972 40.972 40.972h15.012v217.669h-15.012c-22.592 0-40.972 18.38-40.972 40.972v15.012z" fill="#e64e64"/></g><path d="m260.139 259.003c-18.047-16.098-41.528-24.964-66.117-24.964h-56.399v133.054h56.399c24.589 0 48.07-8.866 66.117-24.965l46.594-41.563z" fill="#935ed0"/><g><path d="m281.785 250.107c-21.121-19.544-48.601-30.307-77.378-30.307h-66.005l-4.426 33.754c11.933 3.683 23.084 10.111 32.248 18.591l30.714 28.421-30.714 28.421c-9.165 8.481-20.315 14.909-32.248 18.591l4.425 33.755h66.005c28.776 0 56.256-10.764 77.378-30.308l54.53-50.458zm-20.392 78.879c-15.555 14.394-35.793 22.321-56.986 22.321h-18.106c.104-.096.211-.188.315-.283l54.529-50.458-54.529-50.458c-.103-.096-.211-.188-.315-.283h18.105c21.193 0 41.431 7.927 56.986 22.321l30.714 28.421z" fill="#fabe2c"/></g><path d="m74.406 131.019s37.291-130.954-2.408-130.954c-39.7 0-71.998 32.297-71.998 71.997v58.957z" fill="#e64e64"/><g><path d="m143.995 72.062c0-39.699-32.298-71.997-71.997-71.997v130.954h71.997z" fill="#d4374e"/></g><g><path d="m79.475 134.57c-2.459-.206-4.953-70.38-7.478-70.38-39.699-.001-71.997 26.09-71.997 58.16v245.48l79.475-.058z" fill="#d599ed"/><g><path d="m143.995 122.35c0-32.07-32.298-58.161-71.997-58.161v303.589l71.997-.052z" fill="#ad77e3"/></g></g><path d="m71.997 433.643 20.658-58.957c0-39.699 19.041-71.997-20.658-71.997s-71.997 32.298-71.997 71.997v58.957z" fill="#e64e64"/><path d="m143.995 433.643v-58.957c0-39.699-32.298-71.997-71.997-71.997v130.954z" fill="#d4374e"/><g><path d="m71.998 511.935c-39.7 0-71.998-32.298-71.998-71.998s32.298-71.998 71.998-71.998 39.7 143.996 0 143.996z" fill="#fd7c90"/></g><path d="m143.995 439.976v-.077c-.021-39.682-32.31-71.959-71.997-71.959v143.996c39.687-.001 71.976-32.278 71.997-71.96z" fill="#e96175"/></g></svg>