<svg id="Capa_1" enable-background="new 0 0 496.999 496.999" height="512" viewBox="0 0 496.999 496.999" width="512" xmlns="http://www.w3.org/2000/svg"><g><path d="m466.999 150.25h-30l30 152.511c0 8.28 6.71 14.5 15 14.5 8.28 0 15-6.22 15-14.5v-122.511c0-16.5-13.5-30-30-30z" fill="#47965c"/><path d="m436.999 150.25h-37.833v152.01h29.999v146.073c0 10.447 8.469 18.916 18.917 18.916 10.447 0 18.916-8.469 18.916-18.916l.001-268.083c0-16.5-13.5-30-30-30z" fill="#54ab72"/><path d="m413.837 30.25v90c24.853 0 45-20.147 45-45s-20.147-45-45-45z" fill="#47965c"/><path d="m428.837 75.25c0-24.853-6.716-45-15-45-24.853 0-45 20.147-45 45s20.147 45 45 45c8.284 0 15-20.147 15-45z" fill="#54ab72"/><path d="m399.166 150.25h-30l30 152.511c0 8.28 6.71 14.5 15 14.5 8.28 0 15-6.22 15-14.5v-122.511c0-16.5-13.5-30-30-30z" fill="#ffbb6e"/><path d="m369.166 150.25h-37.833v152.01h29.999v146.073c0 10.447 8.469 18.916 18.917 18.916 10.447 0 18.916-8.469 18.916-18.916l.001-268.083c0-16.5-13.5-30-30-30z" fill="#ffd478"/><path d="m346.003 29.75v90c24.853 0 45-20.147 45-45s-20.147-45-45-45z" fill="#ffbb6e"/><path d="m361.003 74.75c0-24.853-6.716-45-15-45-24.853 0-45 20.147-45 45s20.147 45 45 45c8.285 0 15-20.147 15-45z" fill="#ffd478"/><path d="m331.333 150.25h-30l30 152.511c0 8.28 6.71 14.5 15 14.5 8.28 0 15-6.22 15-14.5v-122.511c0-16.5-13.5-30-30-30z" fill="#ff5f43"/><path d="m225.667 150.25h30l-30 152.011c0 8.28-6.72 15-15 15s-15-6.72-15-15v-122.011c0-16.5 13.5-30 30-30z" fill="#ffa061"/><path d="m331.333 180.25c0-16.5-13.5-30-30-30h-45.667c-16.5 0-30 13.5-30 30v268.083c0 10.447 8.469 18.916 18.917 18.916 10.447 0 18.917-8.469 18.917-18.916v-146.073h30v146.073c0 10.447 8.469 18.916 18.917 18.916 10.447 0 18.916-8.469 18.916-18.916z" fill="#ff8053"/><path d="m278.171 30.25v90c24.853 0 45-20.147 45-45s-20.147-45-45-45z" fill="#ff5f43"/><path d="m293.171 75.25c0-24.853-6.716-45-15-45-24.853 0-45 20.147-45 45s20.147 45 45 45c8.284 0 15-20.147 15-45z" fill="#ff8053"/><path d="m135.667 150.25h-30l30 152.511c0 8.28 6.71 14.5 15 14.5 8.28 0 15-6.22 15-14.5v-122.511c0-16.5-13.5-30-30-30z" fill="#597dcf"/><path d="m30 150.25h30l-30 152.01c0 8.28-6.72 15-15 15s-15-6.72-15-15v-122.01c0-16.5 13.5-30 30-30z" fill="#7aa3ff"/><g fill="#6a90e7"><path d="m135.667 180.25c0-16.5-13.5-30-30-30h-45.667c-16.5 0-30 13.5-30 30v268.083c0 10.447 8.469 18.916 18.917 18.916 10.447 0 18.917-8.469 18.917-18.916v-146.073h30v146.073c0 10.447 8.469 18.916 18.917 18.916 10.447 0 18.916-8.469 18.916-18.916z"/><path d="m52.504 45.25c0 8.284 6.716 15 15 15v45c0 8.284 6.716 15 15 15s15-6.716 15-15v-60c0-8.284-6.716-15-15-15h-15c-8.284 0-15 6.715-15 15z"/></g></g></svg>