<svg id="Capa_1" enable-background="new 0 0 512.01 512.01" height="512" viewBox="0 0 512.01 512.01" width="512" xmlns="http://www.w3.org/2000/svg" xmlns:xlink="http://www.w3.org/1999/xlink"><linearGradient id="SVGID_1_" gradientUnits="userSpaceOnUse" x1="256.005" x2="256.005" y1="462.994" y2="49.017"><stop offset="0" stop-color="#fd5900"/><stop offset="1" stop-color="#ffde00"/></linearGradient><g><g><g><path d="m498.82 62.174c-17.545-17.545-46.094-17.545-63.65.011l-70.65 70.802h-14.99c1.664-4.693 2.569-9.74 2.569-14.997 0-24.811-20.186-44.997-44.996-44.997h-106.073c-20.034 0-38.868 7.801-53.033 21.967l-46.068 46.068c-16.724-7.967-37.382-5.044-51.209 8.782-14.119 14.119-16.642 34.848-8.801 51.228l-37.525 37.525c-5.858 5.858-5.858 15.355 0 21.213l84.853 84.853c5.857 5.858 15.355 5.858 21.213 0l37.526-37.525c16.387 7.844 37.115 5.311 51.227-8.801 11.617-11.616 15.479-27.821 11.897-42.541l118.268-9.803v39.615c-17.459 6.192-30 22.865-30 42.42 0 11.517 4.354 22.032 11.495 30-7.142 7.968-11.495 18.483-11.495 30v60c0 8.284 6.716 15 15 15h60c8.284 0 15-6.716 15-15v-60c0-11.517-4.354-22.032-11.495-30 7.142-7.968 11.495-18.483 11.495-30 0-19.555-12.541-36.228-30-42.42v-42.649c13.693-2.812 26.472-9.426 36.672-19.121 0 0 102.687-97.906 102.771-97.99 17.585-17.585 17.588-46.052-.001-63.64zm-398.967 250.636-63.64-63.64 25.113-25.113 63.64 63.64zm78.146-35.72c-5.861 5.862-15.35 5.864-21.213 0l-84.854-84.853c-5.849-5.848-5.849-15.365 0-21.213 5.847-5.847 15.363-5.85 21.213-.001 0 0 .001.001.001.001.001.001.002.002.003.002 0 0 82.472 83.566 84.919 84.926 5.809 5.887 5.756 15.313-.069 21.138zm13.808-49.831-66.841-66.842 44.243-44.243c8.499-8.499 19.8-13.18 31.82-13.18h106.072c8.269 0 14.996 6.728 14.996 14.997s-6.728 14.997-14.996 14.997h-63.644c-8.284 0-15 6.716-15 15s6.716 15 15 15h85.919v52.869zm167.57 205.735h-30v-45c0-8.271 6.729-15 15-15s15 6.729 15 15zm-15-90c-8.271 0-15-6.729-15-15s6.729-15 15-15 15 6.729 15 15-6.728 15-15 15zm133.334-238.5-102.348 97.581c-4.593 4.366-10.064 7.692-15.986 9.793v-48.881h11.364c3.983 0 7.804-1.585 10.618-4.405l75.034-75.195c5.848-5.849 15.365-5.849 21.213 0 5.83 5.829 5.862 15.24.105 21.107z" fill="url(#SVGID_1_)"/></g></g></g></svg>